<?xml version="1.0" standalone="no"?>
<!DOCTYPE svg PUBLIC "-//W3C//DTD SVG 20010904//EN"
 "http://www.w3.org/TR/2001/REC-SVG-20010904/DTD/svg10.dtd">
<svg version="1.0" xmlns="http://www.w3.org/2000/svg"
 width="2786.000000pt" height="935.000000pt" viewBox="0 0 2786.000000 935.000000"
 preserveAspectRatio="xMidYMid meet">

<g transform="translate(0.000000,935.000000) scale(0.100000,-0.100000)"
fill="#000000" stroke="none">
<path d="M14867 8820 c-86 -22 -172 -92 -215 -175 -36 -72 -42 -179 -13 -256
30 -78 91 -145 166 -180 51 -25 73 -29 141 -29 70 0 89 4 142 30 110 56 172
149 180 275 11 176 -123 328 -298 340 -36 2 -82 0 -103 -5z"/>
<path d="M3644 8754 c-151 -47 -253 -210 -226 -364 28 -158 143 -260 300 -268
89 -5 147 10 207 53 91 65 137 155 137 272 0 126 -63 228 -177 284 -78 38
-165 46 -241 23z"/>
<path d="M22683 8755 c-147 -45 -234 -160 -234 -307 0 -41 6 -92 15 -117 33
-92 121 -176 210 -201 67 -19 181 -9 240 19 181 89 239 326 118 487 -83 109
-225 158 -349 119z"/>
<path d="M20775 8750 c-122 -14 -264 -47 -393 -91 -64 -23 -119 -42 -120 -44
-2 -2 1 -20 8 -40 9 -26 16 -34 28 -31 144 44 389 58 542 32 268 -47 533 -183
795 -409 190 -163 372 -364 653 -722 l142 -180 0 -1580 c-1 -1297 -3 -1576
-14 -1555 -7 14 -365 872 -797 1907 l-784 1883 -30 0 c-30 0 -31 -2 -43 -66
-17 -88 -85 -276 -192 -525 -49 -113 -380 -896 -735 -1740 -356 -844 -650
-1537 -653 -1541 -4 -4 -133 792 -286 1770 -153 977 -290 1848 -304 1935 l-25
158 -35 -3 -34 -3 -928 -2078 c-510 -1142 -929 -2079 -931 -2081 -2 -3 -377
804 -833 1792 -456 988 -853 1844 -883 1902 -273 525 -702 907 -1173 1043
-246 71 -526 80 -797 26 -51 -10 -53 -12 -53 -43 l0 -33 123 5 c557 20 1030
-335 1437 -1078 48 -87 63 -124 61 -150 -5 -90 -412 -3558 -422 -3594 -55
-206 -219 -330 -539 -409 -82 -20 -111 -21 -952 -24 l-868 -4 0 1036 0 1036
708 -3 707 -3 50 -27 c60 -31 125 -97 154 -154 22 -45 41 -142 41 -211 0 -41
1 -43 30 -43 l30 0 0 550 0 550 -29 0 -28 0 -7 -92 c-9 -124 -39 -190 -117
-262 -103 -95 -61 -91 -849 -91 l-685 0 -3 1073 -2 1073 427 -3 c408 -3 430
-4 479 -24 115 -47 203 -134 245 -241 16 -43 23 -86 27 -165 l4 -108 34 0 34
0 0 435 c0 239 -1 435 -2 435 -2 0 -55 -13 -119 -29 -127 -32 -333 -65 -504
-81 -62 -6 -438 -10 -857 -10 l-748 0 0 -35 0 -35 73 0 c184 0 350 -96 423
-247 l29 -58 3 -2009 c2 -1788 1 -2016 -13 -2070 -52 -200 -238 -336 -461
-336 l-54 0 0 -35 0 -35 2028 2 2027 3 3 33 3 32 -74 0 c-41 0 -94 7 -120 16
-98 33 -187 148 -187 243 -1 67 302 3445 309 3453 4 4 398 -844 877 -1885
l871 -1892 65 -3 64 -3 28 98 c58 201 151 421 882 2072 518 1170 751 1686 756
1674 4 -10 102 -715 218 -1566 116 -851 218 -1587 226 -1635 31 -176 110 -447
173 -594 l20 -48 260 0 260 0 -28 68 c-61 149 -94 264 -94 331 1 62 15 103
240 676 l239 610 935 3 934 2 227 -607 c126 -335 233 -632 239 -661 20 -97 -4
-183 -70 -255 -51 -55 -121 -87 -212 -94 l-70 -6 3 -31 3 -31 780 0 780 0 3
32 c3 32 2 33 -35 33 -106 0 -238 37 -332 92 -72 43 -206 174 -228 224 -17 37
-18 140 -21 1797 -1 1112 1 1757 7 1757 5 0 809 -885 1787 -1967 l1777 -1968
288 -3 287 -2 -5 22 c-6 25 -53 85 -234 297 l-119 141 0 1985 c0 1971 0 1986
20 2046 40 117 121 207 235 260 62 30 81 33 181 37 l112 4 4 34 4 34 -454 0
-454 0 5 -42 c22 -181 28 -659 25 -2266 l-3 -1733 -1805 2008 c-1840 2047
-2096 2323 -2325 2507 -302 241 -578 381 -860 436 -123 23 -326 33 -440 20z
m404 -2781 c227 -605 411 -1102 409 -1105 -3 -2 -385 -3 -850 -2 l-846 3 432
1102 c237 606 434 1103 437 1103 3 0 191 -495 418 -1101z"/>
<path d="M2355 8233 c-141 -18 -359 -75 -512 -135 -87 -33 -103 -43 -103 -61
1 -51 11 -53 122 -19 415 126 756 81 1045 -137 85 -64 195 -174 263 -264 37
-50 41 -60 32 -84 -5 -16 -393 -948 -862 -2073 -550 -1322 -866 -2067 -892
-2107 -56 -86 -178 -200 -263 -245 -88 -45 -155 -65 -251 -74 l-74 -7 0 -33 0
-34 690 0 690 0 0 35 c0 35 0 35 -44 35 -80 0 -170 35 -224 88 -88 86 -105
198 -52 351 16 47 131 345 254 661 l223 575 945 3 c749 2 947 -1 955 -10 5 -7
74 -204 153 -438 211 -629 288 -830 443 -1152 l70 -148 271 0 272 0 -92 184
c-97 196 -212 458 -293 671 -27 72 -265 742 -529 1490 -586 1657 -594 1679
-738 1968 -284 565 -632 875 -1072 952 -80 14 -343 19 -427 8z m1169 -1278
c29 -71 76 -195 104 -275 108 -308 592 -1744 592 -1757 0 -11 -157 -13 -870
-13 -478 0 -870 2 -870 4 0 6 901 2320 908 2331 7 11 62 -107 136 -290z"/>
<path d="M6185 7830 c-600 -35 -958 -123 -1234 -307 -204 -136 -371 -359 -475
-637 -14 -38 -26 -72 -26 -76 0 -9 69 -35 75 -28 1 1 26 43 53 91 202 352 450
535 867 642 201 52 529 95 723 95 l72 0 0 -2088 c0 -2278 4 -2137 -56 -2254
-32 -64 -112 -143 -182 -181 -59 -32 -163 -57 -239 -57 l-53 0 0 -35 0 -35
1183 0 c1169 0 1389 5 1603 35 605 85 1149 370 1495 783 307 367 487 811 538
1326 14 139 14 432 1 567 -109 1097 -809 1864 -1900 2083 -206 42 -359 56
-690 66 -460 14 -1569 20 -1755 10z m2137 -236 c862 -111 1465 -709 1647
-1632 57 -286 66 -721 22 -1012 -157 -1024 -799 -1678 -1740 -1770 -59 -6
-417 -10 -832 -10 l-729 0 0 2220 0 2220 754 0 c631 0 774 -3 878 -16z"/>
<path d="M860 1720 l0 -1090 13015 0 13015 0 0 1090 0 1090 -13015 0 -13015 0
0 -1090z m13295 841 c127 -33 211 -80 288 -160 87 -90 87 -112 -1 -30 -115
107 -235 165 -392 190 -83 13 -206 6 -289 -16 -118 -31 -247 -138 -300 -247
-73 -155 -106 -372 -98 -660 3 -149 8 -197 26 -258 51 -173 147 -317 261 -390
83 -54 159 -73 285 -73 159 0 275 35 414 125 71 47 178 167 213 241 24 50 44
65 27 20 -53 -140 -158 -248 -314 -323 -143 -69 -216 -84 -378 -77 -248 10
-401 71 -553 222 -78 77 -98 104 -138 185 -112 232 -121 470 -26 745 46 134
173 296 307 391 80 58 191 108 278 128 95 21 281 15 390 -13z m2595 19 c196
-10 262 -26 395 -90 114 -56 166 -98 272 -219 138 -158 186 -291 186 -516 0
-120 -4 -154 -26 -240 -15 -55 -48 -143 -74 -195 -38 -77 -62 -110 -128 -175
-92 -92 -155 -127 -311 -173 -185 -55 -282 -67 -559 -67 l-250 0 -3 832 -2
832 57 6 c32 3 65 8 73 9 30 7 209 5 370 -4z m1850 -25 l0 -35 -335 0 -335 0
0 -235 0 -235 385 0 385 0 0 -35 0 -35 -385 0 -385 0 0 -520 0 -520 347 -2
c322 -3 348 -4 351 -20 3 -17 -24 -18 -451 -18 l-454 0 -6 512 c-9 655 -9
1163 0 1171 3 4 204 7 445 7 l438 0 0 -35z m-5540 -1498 l69 -158 -117 3 -116
3 -126 270 -126 270 -315 3 -315 2 -129 -275 -129 -275 -37 0 -37 0 124 267
c68 148 124 271 124 276 0 4 -52 7 -115 7 l-115 0 0 35 0 35 123 0 122 0 195
468 c106 257 207 496 222 532 l29 64 300 -684 c165 -377 331 -756 369 -843z
m2695 693 c196 -448 361 -823 366 -832 9 -17 1 -18 -108 -18 l-118 0 -126 273
-126 272 -315 3 -315 2 -129 -275 -129 -275 -38 0 c-21 0 -36 3 -33 8 7 12
246 533 246 538 0 2 -52 4 -115 4 l-115 0 0 35 0 34 122 3 123 3 220 527 c121
290 223 524 227 520 3 -4 167 -374 363 -822z m3470 135 c202 -363 374 -671
382 -683 14 -23 23 -9 244 390 335 601 551 978 560 978 5 0 8 -371 7 -832 l-3
-833 -112 -3 -113 -3 0 598 c0 358 -4 593 -9 587 -5 -5 -86 -153 -181 -329
-366 -683 -455 -845 -466 -845 -5 0 -48 71 -93 158 -46 86 -142 261 -214 387
-72 127 -175 318 -229 425 l-98 195 0 -588 0 -587 -35 0 -35 0 0 837 c0 709 2
835 14 823 7 -8 179 -312 381 -675z m1592 673 c6 -7 136 -257 289 -555 153
-299 281 -543 284 -543 3 0 126 248 274 550 211 431 274 550 288 550 18 0 18
-1 -1 -37 -10 -21 -136 -284 -280 -586 l-261 -547 0 -240 0 -240 -100 0 -100
0 0 198 0 198 -310 624 c-170 343 -310 628 -310 632 0 14 216 9 227 -4z
m-9637 -963 l0 -85 -4950 0 -4950 0 0 85 0 85 4950 0 4950 0 0 -85z m15178 3
l-3 -83 -2072 -3 -2073 -2 0 85 0 85 2075 0 2076 0 -3 -82z"/>
<path d="M16490 1740 l0 -810 53 0 c102 0 362 30 441 50 245 65 384 178 499
405 54 107 68 167 74 307 7 143 -5 240 -42 349 -40 115 -75 169 -180 275 -77
77 -116 109 -172 136 -126 63 -322 98 -545 98 l-128 0 0 -810z"/>
<path d="M12186 1904 c-87 -206 -156 -377 -154 -380 3 -2 138 -3 300 -2 l296
3 -138 373 c-76 206 -140 375 -142 378 -2 2 -75 -165 -162 -372z"/>
<path d="M15337 2268 c-2 -7 -73 -174 -156 -371 -83 -197 -151 -362 -151 -367
0 -6 115 -10 295 -10 217 0 295 3 295 12 0 11 -268 739 -274 746 -2 1 -6 -3
-9 -10z"/>
</g>
</svg>
